<svg width="39" height="44" viewBox="0 0 39 44" fill="none" xmlns="http://www.w3.org/2000/svg">
<g clip-path="url(#clip0_32_31)">
<path fill-rule="evenodd" clip-rule="evenodd" d="M19.4598 43.2506C29.9748 43.2506 38.5276 34.6978 38.5276 24.1828C38.5276 18.7528 36.2342 13.8574 32.5803 10.3828L34.8254 7.69115C35.4358 6.96003 35.3375 5.87197 34.6064 5.26155C33.8701 4.65113 32.7855 4.75287 32.1785 5.48054L29.8817 8.23432C27.3349 6.56688 24.3742 5.49261 21.1841 5.20465V4.04244H22.4757C23.4292 4.04244 24.2 3.26993 24.2 2.31809C24.2 1.36626 23.4292 0.59375 22.4757 0.59375H16.4439C15.4903 0.59375 14.7196 1.36626 14.7196 2.31809C14.7196 3.26993 15.4903 4.04244 16.4439 4.04244H17.7354V5.20465C14.5454 5.49261 11.5847 6.5686 9.03957 8.23604L6.74274 5.48226C6.13405 4.75287 5.05116 4.65285 4.31487 5.26155C3.58374 5.87197 3.48373 6.96003 4.09587 7.69115L6.34097 10.3828C2.68708 13.8591 0.393708 18.7528 0.393708 24.1828C0.391983 34.6978 8.94473 43.2506 19.4598 43.2506ZM19.4598 8.56539C28.0711 8.56539 35.0789 15.5714 35.0789 24.1845C35.0789 32.7976 28.0711 39.8019 19.4598 39.8019C10.8484 39.8019 3.84067 32.7959 3.84067 24.1828C3.84067 15.5697 10.8484 8.56539 19.4598 8.56539Z" fill="url(#paint0_linear_32_31)"/>
<path fill-rule="evenodd" clip-rule="evenodd" d="M23.7895 30.9525C24.1258 31.2888 24.5672 31.4578 25.0086 31.4578C25.4501 31.4578 25.8915 31.2888 26.2277 30.9525C26.902 30.28 26.902 29.1885 26.2277 28.5143L21.184 23.4689V15.8594C21.184 14.9075 20.4133 14.135 19.4597 14.135C18.5061 14.135 17.7354 14.9075 17.7354 15.8594V24.1828C17.7354 24.6397 17.9164 25.0794 18.2406 25.4019L23.7895 30.9525Z" fill="url(#paint1_linear_32_31)"/>
</g>
<defs>
<linearGradient id="paint0_linear_32_31" x1="6.27159" y1="-21.3436" x2="34.3776" y2="53.9379" gradientUnits="userSpaceOnUse">
<stop stop-color="#0035FF"/>
<stop offset="1" stop-color="#4BFFAF"/>
</linearGradient>
<linearGradient id="paint1_linear_32_31" x1="21.1837" y1="5.22636" x2="27.7595" y2="35.5393" gradientUnits="userSpaceOnUse">
<stop stop-color="#0035FF"/>
<stop offset="1" stop-color="#4BFFAF"/>
</linearGradient>
<clipPath id="clip0_32_31">
<rect width="38.2126" height="42.8123" fill="white" transform="translate(0.393707 0.59375)"/>
</clipPath>
</defs>
</svg>
