<svg width="29" height="56" viewBox="0 0 29 56" fill="none" xmlns="http://www.w3.org/2000/svg">
<path fill-rule="evenodd" clip-rule="evenodd" d="M11.3113 13.2148C11.8352 13.2148 12.3326 13.3281 12.8018 13.5083C12.8273 13.5182 12.8549 13.5238 12.8787 13.5337C12.9765 13.568 13.0655 13.6177 13.1594 13.6603C13.3468 13.7531 13.963 14.145 14.0222 14.1975L27.276 25.7358C27.984 26.3526 28.4101 27.207 28.4758 28.1444C28.5394 29.0817 28.2349 29.9881 27.622 30.6917C27.1201 31.2703 26.4569 31.6616 25.7069 31.823C25.5356 31.86 25.3587 31.8838 25.183 31.8943C24.2589 31.9512 23.3636 31.6483 22.6617 31.0382L15.8537 25.0764L14.9485 33.4064L22.6893 50.739C23.0651 51.5824 23.0646 52.5496 22.6849 53.3902C22.2847 54.28 21.4983 54.9648 20.5272 55.2721C20.1586 55.3887 19.7745 55.4478 19.3854 55.4478C17.939 55.4478 16.6419 54.636 16.0837 53.3819L11.6362 43.416L7.6564 53.3228C7.09654 54.5785 5.8005 55.3909 4.35193 55.3909C3.9645 55.3909 3.58039 55.3318 3.21175 55.2152C2.24014 54.9084 1.45368 54.222 1.05299 53.3322C0.675507 52.491 0.673297 51.5238 1.04857 50.681L6.62566 38.1821V36.7313C3.22999 36.4777 0.551154 33.9359 0.46162 30.9359L0.452225 30.9348L0.457752 30.879C0.456646 30.847 0.452225 30.8155 0.452225 30.7834L0.467147 30.784L1.61783 19.1849C1.61783 16.7133 4.35027 14.7463 7.95485 14.5203C8.81371 13.6818 9.99921 13.2148 11.3113 13.2148ZM14.1084 37.2592L12.8516 40.389L18.2231 52.428C18.4093 52.8469 18.8835 53.1056 19.3854 53.1056C19.5313 53.1056 19.6783 53.084 19.8225 53.0393C20.4653 52.8359 20.7903 52.234 20.5499 51.6935L14.1084 37.2592ZM11.3124 15.5593C10.181 15.5593 9.27741 16.3452 9.05966 17.6805L9.05745 17.681L8.96902 35.7619V38.4695L3.18909 51.6366C2.94757 52.1771 3.2731 52.7789 3.91753 52.9812C4.05956 53.0254 4.20824 53.0487 4.35248 53.0487C4.85598 53.0487 5.32962 52.7889 5.51587 52.37L12.3265 35.8537L13.7005 23.1929L11.6313 21.3801L11.6434 21.363C11.3174 21.1557 11.0885 20.8075 11.0885 20.3919C11.0885 19.7442 11.6125 19.2202 12.2602 19.2202C12.5526 19.2202 12.8112 19.338 13.0174 19.5148L13.0185 19.5132L13.0318 19.5253C13.0572 19.5469 13.0837 19.5657 13.1064 19.59L24.2003 29.2713C24.4424 29.4807 24.7447 29.5747 25.0409 29.5565C25.099 29.5531 25.1581 29.5454 25.2156 29.5327C25.4543 29.4807 25.6804 29.3553 25.8528 29.1558C26.2778 28.6689 26.227 27.9283 25.7395 27.5049L14.7097 17.9027L12.84 16.2756C12.4299 15.8318 11.8977 15.5593 11.3124 15.5593ZM6.66766 17.146C5.03836 17.6539 3.95511 18.7046 3.95511 19.5143L3.94958 19.5132L2.80111 30.9934C2.85914 32.736 4.50668 34.1514 6.6251 34.3697V17.3654C6.63339 17.2881 6.65605 17.2212 6.66766 17.146ZM11.3113 0.239014C14.5411 0.239014 17.1691 2.86645 17.1691 6.09631C17.1691 9.32617 14.5411 11.9542 11.3113 11.9542C8.08197 11.9542 5.45397 9.32673 5.45397 6.09687C5.45397 2.86701 8.08197 0.239014 11.3113 0.239014ZM11.3113 2.58182C9.37358 2.58182 7.79678 4.15862 7.79678 6.09631C7.79678 8.03401 9.37358 9.6108 11.3113 9.6108C13.249 9.6108 14.8258 8.03401 14.8258 6.09631C14.8258 4.15862 13.2495 2.58182 11.3113 2.58182Z" fill="url(#paint0_linear_32_97)"/>
<defs>
<linearGradient id="paint0_linear_32_97" x1="11.3407" y1="-28.1535" x2="31.8451" y2="68.5439" gradientUnits="userSpaceOnUse">
<stop stop-color="#0035FF"/>
<stop offset="1" stop-color="#4BFFAF"/>
</linearGradient>
</defs>
</svg>
