<svg width="45" height="48" viewBox="0 0 45 48" fill="none" xmlns="http://www.w3.org/2000/svg">
<path fill-rule="evenodd" clip-rule="evenodd" d="M32.6828 28.3433C39.1 28.3433 44.2221 34.1383 44.2221 41.2007C44.2221 49.4773 21.1436 49.4773 21.1436 41.2007C21.1436 34.1383 26.2657 28.3433 32.6828 28.3433ZM21.6453 0.419922C22.174 0.419922 22.6639 0.697314 22.9359 1.15066L25.5079 5.43698H32.6084C33.3908 5.43698 34.0337 6.0339 34.1066 6.79715L34.1135 6.9421V10.9558C34.1135 11.787 33.4397 12.4609 32.6084 12.4609C31.8261 12.4609 31.1831 11.864 31.1102 11.1007L31.1033 10.9558L31.1026 8.44722H3.76863V42.2943L17.1299 42.2945C17.9123 42.2945 18.5552 42.8914 18.6282 43.6546L18.635 43.7996C18.635 44.582 18.0381 45.2249 17.2749 45.2978L17.1299 45.3047H2.26452C1.48216 45.3047 0.839222 44.7078 0.766289 43.9445L0.759399 43.7996V6.9421C0.759399 6.15975 1.35632 5.51681 2.11957 5.44387L2.26452 5.43698H9.75499L12.3274 1.15066C12.5858 0.719981 13.0408 0.448101 13.539 0.42199L13.618 0.419922H21.6453ZM32.6828 31.3536C28.0166 31.3536 24.1538 35.7238 24.1538 41.2007C24.1538 45.4636 41.2118 45.4636 41.2118 41.2007C41.2118 35.7238 37.3491 31.3536 32.6828 31.3536ZM17.6316 26.5086C18.4629 26.5086 19.1368 27.1825 19.1368 28.0138C19.1368 28.7961 18.5398 29.4391 17.7766 29.512L17.6316 29.5189H10.6077C9.77649 29.5189 9.10263 28.845 9.10263 28.0138C9.10263 27.2314 9.69955 26.5885 10.4628 26.5155L10.6077 26.5086H17.6316ZM32.6828 15.4711C35.7308 15.4711 38.2016 17.9419 38.2016 20.9899C38.2016 24.0378 35.7308 26.5086 32.6828 26.5086C29.6349 26.5086 27.1641 24.0378 27.1641 20.9899C27.1641 17.9419 29.6349 15.4711 32.6828 15.4711ZM19.6385 20.4882C20.4697 20.4882 21.1436 21.162 21.1436 21.9933C21.1436 22.7756 20.5467 23.4186 19.7834 23.4915L19.6385 23.4984H10.6077C9.77649 23.4984 9.10263 22.8245 9.10263 21.9933C9.10263 21.2109 9.69955 20.568 10.4628 20.4951L10.6077 20.4882H19.6385ZM32.6828 18.4813C31.2974 18.4813 30.1743 19.6045 30.1743 20.9899C30.1743 22.3753 31.2974 23.4984 32.6828 23.4984C34.0682 23.4984 35.1914 22.3753 35.1914 20.9899C35.1914 19.6045 34.0682 18.4813 32.6828 18.4813ZM21.6453 14.0918C22.4765 14.0918 23.1504 14.7657 23.1504 15.5969C23.1504 16.3793 22.5535 17.0222 21.7902 17.0952L21.6453 17.1021H10.6077C9.77649 17.1021 9.10263 16.4282 9.10263 15.5969C9.10263 14.8146 9.69955 14.1717 10.4628 14.0987L10.6077 14.0918H21.6453ZM20.7925 3.43016H14.47L13.2659 5.43698H21.9966L20.7925 3.43016Z" fill="url(#paint0_linear_32_105)"/>
<defs>
<linearGradient id="paint0_linear_32_105" x1="6.39803" y1="-23.7449" x2="38.6225" y2="59.6749" gradientUnits="userSpaceOnUse">
<stop stop-color="#0035FF"/>
<stop offset="1" stop-color="#4BFFAF"/>
</linearGradient>
</defs>
</svg>
