<svg width="59" height="54" viewBox="0 0 59 54" fill="none" xmlns="http://www.w3.org/2000/svg">
<g clip-path="url(#clip0_32_108)">
<path fill-rule="evenodd" clip-rule="evenodd" d="M21.4727 26.4984C25.6289 26.4984 28.9983 29.8677 28.9983 34.024C28.9983 38.1387 25.696 41.4821 21.5971 41.5486L21.4727 41.5496C18.9789 41.5496 16.9573 43.5712 16.9573 46.0649C16.9573 48.4874 18.865 50.4644 21.2601 50.5754L21.4727 50.5803H41.5409C42.3722 50.5803 43.046 51.2542 43.046 52.0854C43.046 52.8678 42.4491 53.5107 41.6859 53.5836L41.5409 53.5905H21.4727C17.3164 53.5905 13.9471 50.2212 13.9471 46.0649C13.9471 41.9087 17.3164 38.5393 21.4727 38.5393C23.9664 38.5393 25.988 36.5177 25.988 34.024C25.988 31.6015 24.0803 29.6245 21.6852 29.5135L21.4727 29.5086H17.459C16.6278 29.5086 15.9539 28.8348 15.9539 28.0035C15.9539 27.2212 16.5508 26.5782 17.3141 26.5053L17.459 26.4984H21.4727ZM47.5614 24.4916C53.3677 24.4916 58.0972 29.0459 58.0972 34.6929C58.0972 35.9042 57.7528 37.3753 57.0639 39.1186L56.986 39.3135L56.7397 39.9008C56.6822 40.0334 56.623 40.1676 56.5618 40.3032L56.4688 40.5077L56.1733 41.1342C56.1049 41.2757 56.0346 41.4186 55.9626 41.563L55.8531 41.7806L55.5083 42.4469L55.1389 43.1332L54.7449 43.8395L54.3262 44.566L53.8828 45.3128L53.4149 46.08L53.2941 46.275L53.1717 46.4713L52.6668 47.2692L52.5367 47.4719L52.4051 47.6759L51.8632 48.5048L51.7239 48.7153L51.5831 48.927L51.0043 49.7871L50.8557 50.0054L50.7056 50.225L50.0898 51.1165L49.4494 52.029L48.7844 52.9627C48.1839 53.7998 46.9389 53.7998 46.3384 52.9627L46.1698 52.7273L46.0028 52.4932L45.3501 51.5701L44.722 50.6681L44.1185 49.7871L43.9715 49.5701L43.826 49.3545L43.2596 48.5048L43.1218 48.2956L42.9855 48.0878L42.456 47.2692L42.3275 47.0678L42.2005 46.8677L41.7079 46.08L41.2399 45.3128L40.7966 44.566L40.3779 43.8395L39.9839 43.1332L39.6145 42.4469L39.2697 41.7806C39.1958 41.6348 39.1237 41.4904 39.0535 41.3475L38.9495 41.1342L38.654 40.5077L38.3831 39.9008L38.1368 39.3135C37.396 37.4846 37.0256 35.9491 37.0256 34.6929C37.0256 29.0459 41.7551 24.4916 47.5614 24.4916ZM47.5614 27.5018C43.3927 27.5018 40.0358 30.7344 40.0358 34.6929C40.0358 35.8406 40.5374 37.4785 41.5405 39.5823L41.6277 39.7638L41.9166 40.3466L42.2295 40.9516L42.5665 41.5788L42.9276 42.228L43.0217 42.3937L43.1172 42.5608L43.5144 43.2429L43.9356 43.9467L44.381 44.6722L44.8503 45.4192L45.3438 46.1877L45.8613 46.9776L46.4029 47.7887L46.9686 48.621L47.5614 49.4785L48.4555 48.1792L49.0202 47.3405L49.5597 46.524L49.6906 46.3233L49.82 46.1241L50.3219 45.341L50.7986 44.5803L51.2502 43.8422L51.6767 43.1267L52.078 42.434L52.4542 41.7641L52.8053 41.1172L52.8892 40.9591L52.9715 40.8024L53.2849 40.1902L53.5732 39.6011C53.6766 39.3846 53.7747 39.173 53.8675 38.9664L53.9586 38.7614L54.1841 38.231L54.2365 38.1021L54.2874 37.9746L54.4753 37.4796C54.834 36.4911 55.0349 35.6518 55.0781 34.9661L55.0841 34.8467L55.087 34.6929C55.087 30.7344 51.7301 27.5018 47.5614 27.5018ZM47.5614 30.512C50.0552 30.512 52.0767 32.5336 52.0767 35.0274C52.0767 37.5212 50.0552 39.5428 47.5614 39.5428C45.0676 39.5428 43.046 37.5212 43.046 35.0274C43.046 32.5336 45.0676 30.512 47.5614 30.512ZM47.5614 33.5223C46.7301 33.5223 46.0563 34.1961 46.0563 35.0274C46.0563 35.8587 46.7301 36.5325 47.5614 36.5325C48.3926 36.5325 49.0665 35.8587 49.0665 35.0274C49.0665 34.1961 48.3926 33.5223 47.5614 33.5223ZM11.4385 0.409668C17.2449 0.409668 21.9744 4.964 21.9744 10.611C21.9744 11.8223 21.63 13.2934 20.9411 15.0367L20.8631 15.2316L20.6169 15.8189C20.5594 15.9515 20.5001 16.0857 20.439 16.2213L20.346 16.4258L20.0504 17.0523C19.982 17.1938 19.9118 17.3367 19.8397 17.4811L19.7303 17.6987L19.3855 18.365L19.0161 19.0513L18.622 19.7576L18.2033 20.4841L17.76 21.2309L17.292 21.9981L17.1712 22.1931L17.0488 22.3894L16.5439 23.1873L16.4138 23.39L16.2822 23.594L15.7404 24.4229L15.6011 24.6334L15.4602 24.8451L14.8814 25.7052L14.7329 25.9235L14.5828 26.1431L13.967 27.0346L13.3266 27.9471L12.6616 28.8808C12.0611 29.7179 10.816 29.7179 10.2155 28.8808L10.047 28.6454L9.87993 28.4113L9.22721 27.4882L8.59913 26.5862L7.99568 25.7052L7.84867 25.4882L7.7032 25.2726L7.1367 24.4229L6.99893 24.2137L6.8627 24.0059L6.33316 23.1873L6.20462 22.9859L6.07763 22.7858L5.58504 21.9981L5.11709 21.2309L4.67377 20.4841L4.25508 19.7576L3.86103 19.0513L3.49161 18.365L3.14681 17.6987C3.07293 17.5529 3.00087 17.4085 2.93064 17.2656L2.82666 17.0523L2.53113 16.4258L2.26023 15.8189L2.01396 15.2316C1.2731 13.4027 0.90271 11.8672 0.90271 10.611C0.90271 4.964 5.63221 0.409668 11.4385 0.409668ZM11.4385 3.41991C7.26983 3.41991 3.91295 6.65246 3.91295 10.611C3.91295 11.7587 4.41455 13.3965 5.41765 15.5004L5.50485 15.6819L5.79373 16.2647L6.10668 16.8697L6.44369 17.4969L6.80478 18.1461L6.89881 18.3118L6.99435 18.4789L7.39153 19.161L7.81279 19.8648L8.25811 20.5903L8.7275 21.3373L9.22095 22.1058L9.73847 22.8957L10.2801 23.7068L10.8457 24.5391L11.4385 25.3966L12.3326 24.0973L12.8973 23.2586L13.4368 22.4421L13.5678 22.2414L13.6972 22.0422L14.199 21.2591L14.6757 20.4984L15.1273 19.7603L15.5538 19.0448L15.9552 18.3521L16.3314 17.6822L16.6825 17.0353L16.7663 16.8772L16.8486 16.7205L17.1621 16.1082L17.4504 15.5192C17.5538 15.3027 17.6519 15.0911 17.7447 14.8845L17.8357 14.6795L18.0612 14.1491L18.1137 14.0202L18.1646 13.8927L18.3524 13.3977C18.7111 12.4092 18.912 11.5699 18.9553 10.8842L18.9612 10.7648L18.9641 10.611C18.9641 6.65246 15.6073 3.41991 11.4385 3.41991ZM11.4385 6.43014C13.9323 6.43014 15.9539 8.45174 15.9539 10.9455C15.9539 13.4393 13.9323 15.4609 11.4385 15.4609C8.94478 15.4609 6.92318 13.4393 6.92318 10.9455C6.92318 8.45174 8.94478 6.43014 11.4385 6.43014ZM11.4385 9.44038C10.6073 9.44038 9.93342 10.1142 9.93342 10.9455C9.93342 11.7768 10.6073 12.4506 11.4385 12.4506C12.2698 12.4506 12.9437 11.7768 12.9437 10.9455C12.9437 10.1142 12.2698 9.44038 11.4385 9.44038Z" fill="url(#paint0_linear_32_108)"/>
</g>
<defs>
<linearGradient id="paint0_linear_32_108" x1="1.87606" y1="-12.3131" x2="46.5455" y2="59.2034" gradientUnits="userSpaceOnUse">
<stop stop-color="#0035FF"/>
<stop offset="1" stop-color="#4BFFAF"/>
</linearGradient>
<clipPath id="clip0_32_108">
<rect width="57.529" height="53.5153" fill="white" transform="translate(0.735474 0.242432)"/>
</clipPath>
</defs>
</svg>
