<svg width="16" height="16" viewBox="0 0 16 16" fill="none" xmlns="http://www.w3.org/2000/svg">
<path d="M12.6667 2L3.33333 2C2.59667 2 2 2.59667 2 3.33333L2 12.6667C2 13.4033 2.59667 14 3.33333 14L12.6667 14C13.4033 14 14 13.4033 14 12.6667L14 3.33333C14 2.59667 13.4033 2 12.6667 2ZM6 11.3333H4.318L4.318 6.66667L6 6.66667L6 11.3333ZM5.12933 5.81133C4.61533 5.81133 4.272 5.46867 4.272 5.01133C4.272 4.554 4.61467 4.21133 5.186 4.21133C5.7 4.21133 6.04333 4.554 6.04333 5.01133C6.04333 5.46867 5.70067 5.81133 5.12933 5.81133ZM12 11.3333H10.372L10.372 8.78267C10.372 8.07733 9.938 7.91467 9.77533 7.91467C9.61267 7.91467 9.07 8.02333 9.07 8.78267C9.07 8.89133 9.07 11.3333 9.07 11.3333L7.388 11.3333L7.388 6.66667L9.07 6.66667V7.318C9.28667 6.938 9.72067 6.66667 10.5347 6.66667C11.3487 6.66667 12 7.318 12 8.78267L12 11.3333Z" fill="white"/>
</svg>
